<svg width="16" height="20" viewBox="0 0 16 20" fill="none" xmlns="http://www.w3.org/2000/svg">
<g clip-path="url(#clip0_625_312)">
<path d="M14.81 9.3438C14.1339 9.14308 13.3635 8.72105 12.745 8.4174C12.31 8.20124 11.9012 7.95419 11.5186 7.67113C10.5543 6.96089 9.76292 6.04478 9.21261 5H7.6246C7.6246 5 7.6246 5.01029 7.6246 5.01544C8.29544 6.56459 9.40129 7.90273 10.7901 8.88574C11.1098 9.1122 11.4295 9.34894 11.7807 9.51879H1V10.4812H11.8331C11.4715 10.6716 11.1256 10.8827 10.7954 11.1143C9.40653 12.0973 8.30068 13.4354 7.62984 14.9846C7.62984 14.9846 7.62984 14.9949 7.62984 15H9.21785C9.76816 13.9501 10.5648 13.0391 11.5239 12.3289C11.9065 12.0458 12.3205 11.7988 12.7503 11.5826C13.3635 11.279 13.9505 10.8929 14.6318 10.6922C15.8687 10.2908 15.9997 10.0232 15.9997 10.0077C15.9997 9.99228 16.0521 9.76068 14.8152 9.35924L14.81 9.3438Z" fill="#171C3B"/>
</g>
<defs>
<clipPath id="clip0_625_312">
<rect width="16" height="20" fill="white"/>
</clipPath>
</defs>
</svg>
